<?xml version="1.0" encoding="UTF-8"?>
<svg id="Camada_2" data-name="Camada 2" xmlns="http://www.w3.org/2000/svg" viewBox="0 0 303 303">
  <g id="Layer_1" data-name="Layer 1">
    <g>
      <rect width="303" height="303" rx="35.59" ry="35.59" style="fill: #0083c1;"/>
      <g>
        <path d="M92.55,118.1c-.6-.6-1.6-.8-2.4-.4s-1.4,1.2-1.4,2v63.9c0,.8.6,1.8,1.4,2h.8c.6,0,1.2-.2,1.6-.6l32-32c.4-.4.6-1,.6-1.6s-.2-1.2-.6-1.6l-32-32h0v.3Z" style="fill: #fff;"/>
        <path d="M227.05,162.3c4.2,4.2,9.6,6.4,15.7,6.4,12.3,0,22.3-9.8,22.3-22.1V60.2c0-12.3-10-22.3-22.3-22.3h-86.6c-8.8,0-16.9,5.2-20.3,13.5-3.4,8.2-1.6,17.7,4.8,23.9l19.7,19.7-8.6,8.6-56.1-55.7c-6.4-6.4-14.9-9.8-23.9-9.8-18.7,0-33.8,15.1-33.8,33.8v159.2c0,18.7,15.1,33.8,33.8,33.8s17.5-3.6,23.9-9.8l55.7-55.7,55.9,55.9c6.2,6.2,14.7,9.8,23.5,9.8h.8c18.5,0,33.4-15.1,33.4-33.8s-3.4-17.3-9.8-23.7l-56.1-55.9,8.6-8.6,19.3,19.3h.2l-.1-.1ZM175.55,153.1l66.9,66.9c3,3,4.6,6.8,4.6,11.5,0,8.6-7,15.7-15.7,15.7h-.8c-4.2,0-8.2-1.6-11.1-4.6l-66.7-66.7c-.4-.4-1-.6-1.6-.6s-1.2.2-1.6.6l-66.5,66.5c-3,3-7,4.8-11.5,4.8-8.8,0-16.1-7.2-16.1-16.1V71.9c0-8.8,7.2-16.1,16.1-16.1s8.4,1.6,11.5,4.6l66.7,66.7c.8.8,2.4.8,3.2,0l30.5-30.5c.8-.8.8-2.4,0-3.2l-30.5-30.5c-1.8-1.8-1.2-4-1-4.6s1.4-2.6,4-2.6h86.6c2.6,0,4.6,2.2,4.6,4.8v86.2c0,3-2.6,4.4-4.4,4.4s-2.2-.4-3-1.4l-30.3-30.3c-.4-.4-1-.6-1.6-.6s-1.2.2-1.6.6l-30.5,30.5c-.4.4-.6,1-.6,1.6s.2,1.2.6,1.6c0,0-.2,0-.2,0Z" style="fill: #fff;"/>
      </g>
    </g>
  </g>
</svg>