<?xml version="1.0" encoding="UTF-8"?>
<svg id="Layer_1" data-name="Layer 1" xmlns="http://www.w3.org/2000/svg" viewBox="0 0 470.75 123.77">
  <g>
    <path d="M30.28,46.19c-.32-.32-.8-.41-1.22-.24-.42.17-.69.58-.69,1.04v31.77c0,.45.27.86.69,1.04.14.06.28.09.43.09.29,0,.58-.11.79-.33l15.89-15.89c.21-.21.33-.5.33-.79s-.12-.58-.33-.79l-15.89-15.89h0Z" style="fill: #0083c1;"/>
    <path d="M97.24,68.15c2.09,2.09,4.85,3.24,7.77,3.24,6.1,0,11.06-4.95,11.06-11.04V17.44c0-6.12-4.98-11.12-11.11-11.13l-43.14-.09c-4.45,0-8.42,2.66-10.12,6.77-1.7,4.11-.77,8.8,2.37,11.94l9.78,9.79-4.31,4.31L31.79,11.28c-3.18-3.18-7.4-4.92-11.89-4.92C10.63,6.36,3.09,13.9,3.09,23.17v79.22c0,9.28,7.55,16.83,16.83,16.83,4.5,0,8.74-1.75,11.91-4.93l27.7-27.7,27.76,27.77c3.14,3.14,7.32,4.87,11.75,4.87h.39c9.16,0,16.62-7.46,16.62-16.83,0-4.44-1.73-8.62-4.88-11.76l-27.87-27.82,4.29-4.29,9.63,9.64.02-.02ZM71.65,63.6l33.32,33.26c1.48,1.48,2.29,3.44,2.29,5.73,0,4.31-3.5,7.81-7.81,7.81h-.39c-2.09,0-4.05-.81-5.52-2.29l-33.2-33.2c-.22-.22-.51-.33-.79-.33s-.57.11-.79.33l-33.14,33.14c-1.51,1.51-3.53,2.35-5.69,2.35-4.42,0-8.02-3.6-8.02-8.02V23.17c0-4.41,3.59-8,8-8,2.14,0,4.15.83,5.66,2.35l33.18,33.18c.44.44,1.15.44,1.59,0l15.18-15.18c.44-.44.44-1.15,0-1.59l-15.21-15.22c-.94-.94-.6-2.03-.47-2.35s.66-1.33,1.99-1.33h0l43.11.09c1.28,0,2.32,1.05,2.32,2.33v42.91c0,1.54-1.32,2.23-2.25,2.23-.59,0-1.1-.22-1.54-.66l-15.06-15.08c-.21-.21-.5-.33-.79-.33s-.58.12-.79.33l-15.17,15.17c-.21.21-.33.5-.33.79s.12.58.33.79h-.01Z" style="fill: #0083c1;"/>
  </g>
  <g>
    <path d="M169.48,37.82h-11.57v-10.61c0-1.86-1.51-3.37-3.37-3.37h-2.11c-4.7,0-8.66,3.27-9.17,7.51-.04.21-.06.41-.06.62v50.74c0,12.19,6.34,18.9,17.85,18.9h5.59c1.86,0,3.37-1.51,3.37-3.37v-7.84c0-1.86-1.51-3.37-3.37-3.37h-5.13c-3.25,0-3.6-4.26-3.6-6.09v-28.52h11.57c1.86,0,3.37-1.51,3.37-3.37v-7.89c0-1.86-1.51-3.37-3.37-3.37v.03Z" style="fill: #0083c1;"/>
    <path d="M227.54,37.75h-22.55c-16.28,0-30.55,14.9-30.55,31.9s13.35,31.17,30.55,31.96h22.55c1.86,0,3.37-1.51,3.37-3.37v-57.12c0-1.86-1.51-3.37-3.37-3.37ZM216.18,52.56v34.36h-9.84c-8.85,0-17.21-8.39-17.21-17.27s8.2-17.09,17.21-17.09c0,0,9.84,0,9.84,0Z" style="fill: #0083c1;"/>
    <path d="M269.21,38.26h-10.47c-11.56,0-17.93,6.74-17.93,18.98v41c0,1.86,1.51,3.37,3.37,3.37h7.87c1.86,0,3.37-1.51,3.37-3.37v-40.63c0-4.38,1.65-4.74,3.64-4.74h10.15c1.86,0,3.37-1.51,3.37-3.37v-7.88c0-1.86-1.51-3.37-3.37-3.37h0Z" style="fill: #0083c1;"/>
    <path d="M307.47,38.26c-16.7,0-30.29,14.21-30.29,31.68s13.5,31.57,30.12,31.67h19.89c1.86,0,3.37-1.51,3.37-3.37v-7.8c0-1.86-1.51-3.37-3.37-3.37h-19.86c-6.77-.05-12.68-4.63-14.97-11.12h41.87c1.74,0,3.2-1.33,3.35-3.07.09-.97.14-1.95.14-2.95,0-17.47-13.57-31.68-30.26-31.68h.01ZM293.49,61.39c2.83-5.21,8.11-8.59,13.97-8.59s11.13,3.38,13.95,8.59c0,0-27.92,0-27.92,0Z" style="fill: #0083c1;"/>
    <path d="M362.33,39.78c.63-.68,3-2,3.84-2h16.45v-12.89h-18.91c-9.61,0-16.6,10.23-16.46,19.17v23.44c0,.19,0,.37,0,.56v31.25s.01,2.3.01,2.3h12.91v-32.31c0-1.29,1.23-4.53,2.15-5.52.63-.68,3-2,3.84-2h12.45v-12.89h-14.91c-1.22,0-2.41.17-3.54.48v-4.07c0-1.29,1.23-4.53,2.15-5.52Z" style="fill: #0083c1;"/>
    <path d="M404.73,37.56h-7.87c-1.86,0-3.37,1.51-3.37,3.37v57.31c0,1.86,1.51,3.37,3.37,3.37h7.87c1.86,0,3.37-1.51,3.37-3.37v-57.31c0-1.86-1.51-3.37-3.37-3.37Z" style="fill: #0083c1;"/>
    <path d="M464.66,86.86h-23.09l.92-1.36,14.93-22.06,9.39-13.88c.45-.67.8-1.42.97-2.22.11-.53.12-.91.1-1.06-.28-8.37-2.26-8.81-10.48-8.64-.26-.02-.53-.02-.79.02-1.9.04-4.1.1-6.67.1h-27.75c-1.78,0-3.22,1.51-3.22,3.37v7.87c0,1.86,1.44,3.37,3.22,3.37h23.09l-.92,1.36-14.93,22.06-9.39,13.88c-.45.67-.8,1.42-.97,2.22-.11.53-.12.91-.1,1.06.28,8.37,2.26,8.81,10.48,8.64.26.02.53.02.79-.02,1.9-.04,4.1-.1,6.67-.1h27.75c1.78,0,3.22-1.51,3.22-3.37v-7.87c0-1.86-1.44-3.37-3.22-3.37Z" style="fill: #0083c1;"/>
  </g>
</svg>