<?xml version="1.0" encoding="UTF-8"?>
<svg id="Camada_2" data-name="Camada 2" xmlns="http://www.w3.org/2000/svg" viewBox="0 0 799.97 261.46">
  <g id="Layer_1" data-name="Layer 1">
    <g>
      <path d="M525.89,109.39C518.79,44.29,477.59-3.41,394.29.19c-83.3,3.6-115.7,57.3-118.7,121.5-3.2,69.4,27.6,137.3,120.9,139.7,105.8,2.7,137.8-75.6,129.4-151.9h0v-.1ZM418.29,216.69c-35.9,8.1-63.7-8.5-75.6-36.5-16.3-38.5-15.3-131.9,49.7-137.5,44.6-3.8,65.9,22.7,73.2,56.2,7.9,36.3,5,105.9-47.3,117.8h0Z" style="fill: #087fbc;"/>
      <path d="M795.29,169.69c-1.8-2-6.7-4.7-9.6-4.7h-23.6s-.9-.7-.9-.8V17.19c0-.7-1.3-3.8-1.7-4.7-2.8-5.9-8.1-8.4-15.5-8.9-13.8-.9-35.9-.8-49.7,0-11.4.6-20.5,4.5-28.1,11.6-33.3,39.9-68.2,79-100.5,119.5-15.9,19.9-18.5,30.7-16.5,55.3.8,9.9,7.6,18.2,20.3,18.2h134.3v35.1c0,5.7,6.7,12.2,13.3,13.4,4.8.8,24.2.7,29.4.2,4.7-.5,10.5-3.6,12.7-7.2,3-5,2.1-12.1,2.2-17.6,0-7.9-.2-15.9,0-23.8h20.9c5.4,0,11.8-2.7,14.6-6.6,4.4-6.3,4.2-25.8-1.3-31.7l-.3-.3h0ZM703.49,164.19s-.8.8-.9.8h-94.9v-2.7c30.8-37.4,61.8-74.9,93.4-111.8l2.4-.8v114.5Z" style="fill: #0680bb;"/>
      <path d="M248.79,172.59c-1.6-3.1-6.9-7.5-11.1-7.5h-24.2s-.9-.7-.9-.8V18.29c0-.7-1.2-4.5-1.5-5.4-2.4-5.8-8-8.8-15.1-9.3-13.7-.9-36-.8-49.7,0-13.5.8-21.6,5-30.3,13.3C82.99,57.49,46.89,96.59,14.59,137.69,1.09,154.89-1.21,168.09.49,188.89c.7,9.2,6.5,19.2,19.1,19.2h135.5v35.1c0,.7,1.6,5,2.1,5.9,2.4,4.4,7.6,7.3,13.3,7.7,6.5.5,20.9.6,27.3,0,7.2-.7,14.8-6.8,14.8-13.1v-35.6h21.5c3,0,8.2-1.7,10.6-3.3,8-5.4,7.7-25,4.1-32.2h0ZM154.99,164.99H59.19v-2.7c30.5-37.3,61.7-74.3,92.7-111.3l3.1-1.3v115.3Z" style="fill: #057fbb;"/>
    </g>
  </g>
</svg>